<svg id="Camada_1" data-name="Camada 1" xmlns="http://www.w3.org/2000/svg" viewBox="0 0 1200 1200"><defs><style>.cls-1{fill:#c1272d;opacity:0.5;}.cls-2{fill:none;stroke:#000;stroke-linejoin:round;stroke-opacity:0.5;stroke-width:20px;}</style></defs><path class="cls-1" d="M627.5,516.78v0h-.82v0A51.22,51.22,0,0,0,576.29,568c0,37.74,44.31,73.57,50.8,78.66,6.49-5.09,50.8-40.92,50.8-78.66A51.21,51.21,0,0,0,627.5,516.78Zm0,73.23a26.44,26.44,0,1,1,26.44-26.43A26.43,26.43,0,0,1,627.5,590Z"/><path class="cls-2" d="M197.19,598.76l34.3-17.84,24.7-30.18L275.4,523.3,274,513.69l12.35-11,4.11-9.61,1.37-16.46,20.58-19.21-1.37-21.95,27.44-30.19,28.82-9.61,1.37-11,13.72-16.47h12.35l16.47-15.09h9.6l2.74,5.49,28.82,6.86h52.14l8.23,2.74,17.84-1.37,6.86,19.21L545.7,393l11-1.37,4.11-5.49,2.75,11,9.6,6.86H580l6.86-11,6.86-11,46.65-2.74,4.12-5.49,1.37,2.74h30.19l5.48-9.6,13.72,1.37L709,365.51l9.6,9.6,5.49,6.86-2.75,19.21,11,11,4.12,9.6-6.86,15.09,6.86,39.8,11,17.83,11,12.35,16.47-2.74,8.23-1.38h5.49L794,516.43l-9.6,4.12-11,37.05v41.16l9.61,12.35,9.6,2.74v15.09l5.49,6.86,1.37,9.61,9.61,8.23,52.14-4.11,9.6-12.35,1.37-9.61,31.56,2.75L928.51,618l28.81-4.12,11,15.09,34.3,2.75-9.6,8.23-26.07,6.86-13.72,6.86-11,11v19.21l-6.86,5.48-15.09,11-16.47,8.23L887.35,714l-6.87,8.23v6.86h-48l-23.32,8.24-16.47,2.74-8.23,8.23L735,777.13l-5.48,12.35-19.21,9.6-8.24,6.86-20.58-1.37-8.23,11-16.46,13.72H650l-16.47,12.35-2.74,5.48h-11l-9.6-5.48,5.48-17.84-9.6-9.61-11-5.48-53.51,5.48,5.49-23.32-1.37-13.72-16.47-27.44-4.11-26.07-11-17.84-5.49-27.44-13.72-19.21-16.47-24.7-37,1.38-13.72-1.38-23.33-1.37-9.6,8.23-6.86-12.35-24.7-4.11-27.44-16.47-23.33,1.38-24.69-8.24L261.68,596l-8.24,8.23H228.75l-11-4.12L215,602.88l-17.84-4.12Z"/></svg>