<svg viewBox="0 0 1200 1200" xmlns="http://www.w3.org/2000/svg"><g style="opacity:.5;fill:none;stroke:#ccc;stroke-linecap:round;stroke-linejoin:round;stroke-width:40"><path d="m600.13 339.12v717.92"/><path d="m859.49 143.04v914"/><path d="m340.77 143.04v914"/><path d="m600.13 600.04h424.32"/><path d="m340.77 756.18h259.36"/><path d="m175.81 962.63h848.64"/><path d="m175.81 339.12h848.64"/></g><path d="m414.08 642.46h-.5a31 31 0 0 0 -30.48 31c0 22.83 26.8 44.5 30.73 47.58 3.92-3.08 30.73-24.75 30.73-47.58a31 31 0 0 0 -30.48-31zm0 44.3a16 16 0 1 1 16-16 16 16 0 0 1 -16 16z" fill="#c1272d" opacity=".5"/></svg>