<svg id="Camada_1" data-name="Camada 1" xmlns="http://www.w3.org/2000/svg" viewBox="0 0 1200 1200"><defs><style>.cls-1,.cls-3{opacity:0.5;}.cls-2{fill:none;stroke:#ccc;stroke-linecap:round;stroke-linejoin:round;stroke-width:40px;}.cls-3{fill:#c1272d;}</style></defs><g class="cls-1"><line class="cls-2" x1="600.13" y1="339.12" x2="600.13" y2="1057.04"/><line class="cls-2" x1="859.49" y1="143.04" x2="859.49" y2="1057.04"/><line class="cls-2" x1="340.77" y1="143.04" x2="340.77" y2="1057.04"/><line class="cls-2" x1="600.13" y1="600.04" x2="1024.45" y2="600.04"/><line class="cls-2" x1="340.77" y1="756.18" x2="600.13" y2="756.18"/><line class="cls-2" x1="175.81" y1="962.63" x2="1024.45" y2="962.63"/><line class="cls-2" x1="175.81" y1="339.12" x2="1024.45" y2="339.12"/></g><path class="cls-3" d="M414.08,642.46h-.5a31,31,0,0,0-30.48,31c0,22.83,26.8,44.5,30.73,47.58,3.92-3.08,30.73-24.75,30.73-47.58A31,31,0,0,0,414.08,642.46Zm0,44.3a16,16,0,1,1,16-16A16,16,0,0,1,414.08,686.76Z"/></svg>